<?xml version="1.0" encoding="UTF-8" standalone="no"?>
<!-- Generator: Adobe Illustrator 28.3.0, SVG Export Plug-In . SVG Version: 6.00 Build 0)  -->

<svg
   version="1.1"
   id="Layer_1"
   x="0px"
   y="0px"
   viewBox="0 0 300 279.26657"
   xml:space="preserve"
   sodipodi:docname="RCJY_Logo_New.svg"
   width="300"
   height="279.26657"
   inkscape:version="1.3.2 (091e20e, 2023-11-25, custom)"
   xmlns:inkscape="http://www.inkscape.org/namespaces/inkscape"
   xmlns:sodipodi="http://sodipodi.sourceforge.net/DTD/sodipodi-0.dtd"
   xmlns="http://www.w3.org/2000/svg"
   xmlns:svg="http://www.w3.org/2000/svg"><defs
   id="defs53" /><sodipodi:namedview
   id="namedview53"
   pagecolor="#ffffff"
   bordercolor="#999999"
   borderopacity="1"
   inkscape:showpageshadow="2"
   inkscape:pageopacity="0"
   inkscape:pagecheckerboard="0"
   inkscape:deskcolor="#d1d1d1"
   inkscape:zoom="2"
   inkscape:cx="179.25"
   inkscape:cy="134"
   inkscape:window-width="1500"
   inkscape:window-height="912"
   inkscape:window-x="-8"
   inkscape:window-y="-8"
   inkscape:window-maximized="1"
   inkscape:current-layer="g7" />
<style
   type="text/css"
   id="style1">
	.st0{fill:#4CC4FF;}
	.st1{fill:#2633FF;}
	.st2{fill:#8142FF;}
	.st3{fill:#052976;}
	.st4{fill:#103576;}
	.st5{fill:#0A9D76;}
	.st6{fill:#20CC76;}
	.st7{fill:url(#SVGID_1_);}
	.st8{fill:url(#SVGID_00000085966504825435209960000017924694031542082710_);}
</style>

<g
   id="g54"
   transform="matrix(0.70521862,0,0,0.70521862,-202.32722,-213.25811)"><g
     id="g13">
	<g
   id="g7">
		<path
   class="st0"
   d="m 636.5,414.5 v 33 c 0,3.6 -2.3,6.8 -5.8,8 l -5.9,2 -59.1,-73.5 65.1,22.6 c 3.4,1.1 5.7,4.3 5.7,7.9 z"
   id="path1"
   style="display:inline" />
		<polygon
   class="st1"
   points="523.3,491.3 523.3,369.2 565.8,383.9 624.9,457.4 "
   id="polygon1"
   style="display:inline" />
		<polygon
   class="st2"
   points="523.3,369.2 523.3,331 565.8,383.9 "
   id="polygon2"
   style="display:inline" />
		
		
		<path
   class="st2"
   d="m 523.3,331 -64.1,15.9 v 0 L 398,362.1 364.2,314.4 c -3.6,-5 0,-12 6.2,-12 h 123.9 c 3.8,0 7.5,1.7 9.9,4.7 z"
   id="path4"
   style="display:inline" />
		<polygon
   class="st1"
   points="481.9,480.5 523.3,491.3 496,500.4 "
   id="polygon5"
   style="display:inline" />
		<path
   class="st0"
   d="m 481.9,480.5 14.1,19.9 -26.9,9 c -4.9,1.6 -10,-2 -10,-7.2 v -27.6 z"
   id="path5"
   style="display:inline" />
		<polygon
   class="st5"
   points="481.9,480.5 459.1,474.6 459.1,448.3 "
   id="polygon6"
   style="display:inline" />
		<path
   class="st6"
   d="m 459.1,448.3 v 26.2 l -54.8,-14.3 c -3.7,-1 -6.3,-4.3 -6.3,-8.1 v -90 z"
   id="path6"
   style="display:inline" />
		
	<path
   style="display:inline;fill:#103576;fill-opacity:1;fill-rule:evenodd;stroke-width:1.418;stroke-linecap:square;stroke-miterlimit:0"
   d="M 398,362.1 481.9,480.50001 523.3,491.3 V 331 Z"
   id="path2" /><polygon
   class="st3"
   points="523.3,491.3 481.9,480.5 459.1,448.3 459.1,346.9 523.3,369.2 "
   id="polygon3"
   style="display:inline" /></g>
	
		<linearGradient
   id="SVGID_1_"
   gradientUnits="userSpaceOnUse"
   x1="491.1929"
   y1="549.401"
   x2="491.1929"
   y2="622.25098"
   gradientTransform="matrix(1,0,0,-1,0,1002)">
		<stop
   offset="0.13"
   style="stop-color:#BC9470"
   id="stop7" />
		<stop
   offset="0.15"
   style="stop-color:#BE9773"
   id="stop8" />
		<stop
   offset="0.34"
   style="stop-color:#D5B9A1"
   id="stop9" />
		<stop
   offset="0.53"
   style="stop-color:#E7D5C4"
   id="stop10" />
		<stop
   offset="0.71"
   style="stop-color:#F4E8DE"
   id="stop11" />
		<stop
   offset="0.87"
   style="stop-color:#FCF4ED"
   id="stop12" />
		<stop
   offset="1"
   style="stop-color:#FFF9F3"
   id="stop13" />
	</linearGradient>
	<path
   class="st7"
   d="m 505.7,426.6 c 0.2,0 0.4,0.1 0.6,0.1 l -3.4,3.7 -0.2,0.2 c -0.3,-0.1 -0.7,-0.1 -1,-0.2 -0.2,0 -0.3,-0.1 -0.5,-0.1 -0.2,-0.1 -0.4,-0.1 -0.6,-0.1 -0.1,0 -0.2,-0.1 -0.4,-0.1 -0.1,0 -0.2,-0.1 -0.3,-0.1 -0.2,-0.1 -0.4,-0.1 -0.5,-0.1 -0.3,-0.1 -0.5,-0.2 -0.8,-0.2 -0.2,0 -0.3,-0.1 -0.5,-0.2 -0.7,-0.2 -1.3,-0.5 -2,-0.7 -0.1,-0.1 -0.3,-0.1 -0.5,-0.2 -0.1,0 -0.1,-0.1 -0.2,-0.1 -0.2,-0.1 -0.3,-0.1 -0.5,-0.2 -0.2,-0.1 -0.3,-0.1 -0.5,-0.2 -0.1,-0.1 -0.3,-0.1 -0.4,-0.2 -0.1,-0.1 -0.3,-0.1 -0.4,-0.2 -0.2,-0.1 -0.4,-0.2 -0.6,-0.3 -0.2,-0.1 -0.4,-0.2 -0.6,-0.3 0.7,-0.4 1.3,-0.9 1.9,-1.3 0.5,-0.4 1,-0.7 1.5,-1 0.2,-0.2 0.5,-0.3 0.7,-0.5 0.2,0.1 0.4,0.2 0.6,0.2 0.4,0.1 0.7,0.3 1.1,0.4 0.2,0.1 0.5,0.2 0.8,0.3 0.1,0.1 0.3,0.1 0.5,0.2 0.2,0.1 0.3,0.1 0.5,0.2 0.2,0.1 0.4,0.1 0.6,0.2 0.2,0.1 0.4,0.1 0.6,0.2 0.7,0.2 1.4,0.4 2.1,0.5 0.1,0 0.2,0 0.4,0.1 0.2,0 0.4,0.1 0.6,0.1 0.2,0 0.4,0.1 0.6,0.1 0.1,0 0.3,0 0.4,0.1 0.2,-0.3 0.3,-0.3 0.4,-0.3 z m -12.3,-7.2 V 396 c 3.2,3.4 5.8,7.4 6.3,12 1.5,-1 2.7,-2.2 3.8,-3.7 -1.1,-4 -3.4,-7.5 -6.1,-10.6 3.9,1.2 7,3.2 8.7,4.6 0.2,-0.9 0.2,-1.8 0.2,-2.7 0,-0.9 -0.1,-1.8 -0.2,-2.7 -2.2,-1.4 -5.1,-2.9 -8.5,-3.7 2.2,-1.5 4.2,-2.5 5.4,-3.1 -1,-1.2 -2.2,-2.3 -3.5,-3.1 -1.6,0.9 -3.6,2.1 -5.9,3.6 v -5.3 0 -0.5 c -0.7,-0.1 -1.4,-0.2 -2.2,-0.2 -0.7,0 -1.5,0.1 -2.2,0.2 v 5.8 c -2.2,-1.5 -4.3,-2.8 -5.9,-3.6 -1.3,0.9 -2.5,1.9 -3.5,3.1 1.2,0.6 3.1,1.6 5.4,3.1 -3.4,0.9 -6.3,2.3 -8.5,3.7 -0.2,0.9 -0.2,1.8 -0.2,2.7 0,0.9 0.1,1.8 0.2,2.7 1.7,-1.3 4.8,-3.4 8.7,-4.6 -2.8,3 -5.1,6.6 -6.2,10.6 1,1.4 2.3,2.7 3.8,3.7 0.4,-4.6 3,-8.6 6.3,-12 v 23.3 0 0 c -4.5,-2.9 -10.8,-5.9 -18.3,-6.5 l 1.9,2.8 1.4,2.1 c 5.3,1.1 9.8,3.4 13.2,5.7 -3.5,1.8 -7.2,2.9 -11.2,3.3 l 3.4,3.7 0.2,0.2 c 4.1,-0.8 8,-2.3 11.6,-4.5 0.9,-0.5 1.7,-1.1 2.5,-1.7 0.5,-0.4 1,-0.7 1.6,-1.1 3.4,-2.3 7.9,-4.6 13.2,-5.7 l 1.4,-2.1 1.9,-2.8 c -7.9,0.8 -14.2,3.7 -18.7,6.7 z"
   id="path13"
   style="display:inline;fill:url(#SVGID_1_)"
   sodipodi:insensitive="true" />
</g><g
     id="g53">
	<g
   id="g21">
		<polygon
   class="st3"
   points="628,604.5 631.7,600.8 635.4,604.5 639.3,600.6 635.4,596.7 631.7,600.4 628,596.7 624.1,600.6 "
   id="polygon13" />
		<polygon
   class="st3"
   points="544.1,557.5 540.5,561.2 536.8,557.5 532.9,561.4 536.8,565.3 540.5,561.6 544.1,565.3 548.1,561.4 "
   id="polygon14" />
		<path
   class="st3"
   d="M 618.3,564.5 H 615 c -1.7,0 -2.1,-0.8 -2.1,-1.8 0,-1.2 0.6,-1.7 2.2,-1.7 0.6,0 1.4,0.1 2.2,0.2 v -2.3 c -1.1,-0.1 -2.2,-0.3 -3.1,-0.3 -3,0 -4.7,1.2 -4.7,3.6 0,0.9 0.2,1.7 0.8,2.4 h -1.6 v 2.3 h 9.4 z"
   id="path14" />
		<path
   class="st3"
   d="m 540.2,592.1 c 2.8,0 5.6,-0.8 8.2,-2.3 1.2,1.3 2.9,2 5,2 h 55.8 c 3.3,0 5.7,-1.9 6.7,-3.8 0.6,1.9 2.5,3.8 4.9,3.8 h 9.8 c 3.3,0 5.7,-1.9 6.7,-3.8 0.6,1.9 2.5,3.8 4.9,3.8 h 30.7 c 3.9,0 6.8,-1.4 8.5,-3.8 v 0 c 0.6,1.9 2.5,3.8 4.9,3.8 h 4.7 c 4.4,0 8,-3.6 8,-8 v -26.4 h -6.8 v 27 c 0,1 -0.8,1.8 -1.8,1.8 h -3.7 c -2.2,0 -3.2,-1.3 -3.2,-3.6 v 0 c 0.2,-1 0.3,-2.2 0.3,-3.3 0,-8.1 -5.6,-12.7 -12.2,-12.8 -4.7,0 -8.4,2.5 -11.6,5.7 h -0.8 c -5.3,0 -9.9,2.7 -9.9,8.4 0,2.2 0.7,4.2 2.5,5.6 h -10 c -2.2,0 -3.2,-1.3 -3.2,-3.6 v -12.8 h -6.8 v 14.6 c 0,1 -0.8,1.8 -1.8,1.8 h -9.5 c -2.2,0 -3.2,-1.4 -3.2,-3.6 v -12.8 h -6.8 v 14.6 c 0,1 -0.8,1.8 -1.8,1.8 h -52.5 c -1.6,0 -2.6,-1.1 -2.6,-2.8 v -17 h -6.8 v 2.5 c -1.3,-0.1 -2.5,-0.3 -3.8,-0.3 -7,0 -12.5,3.7 -12.5,10.3 v 3.6 c 0.1,5.7 3.7,9.6 9.7,9.6 z m 130.6,-20 c 3.2,0 6.2,2.5 6.2,7.4 0,3.8 -1.8,6.7 -5.4,6.7 h -2.4 c 0.2,-1.1 0.2,-2.2 0.2,-3.3 0,-3.9 -1.3,-6.9 -3.7,-8.8 1.6,-1.1 3.2,-2 5.1,-2 z m -11.4,5.2 c 3.1,0 4.1,2.7 4.1,5.7 0,1.1 -0.1,2.1 -0.4,3.2 h -3.2 c -2.8,0 -4.6,-1.8 -4.6,-4.6 0,-2.5 1.5,-4.3 4.1,-4.3 z m -122.1,1.9 c 0,-3.4 2.6,-5 6.1,-5 1.1,0 2.2,0.1 3.5,0.3 v 10.7 c -1.6,0.7 -3.1,1.2 -4.6,1.2 -2.9,0 -4.9,-1.9 -4.9,-4.3 z"
   id="path15" />
		<rect
   x="705.5"
   y="557.40002"
   class="st3"
   width="6.8000002"
   height="34.400002"
   id="rect15" />
		<polygon
   class="st3"
   points="453.8,657.1 457.5,653.5 461.2,657.1 465.1,653.2 461.2,649.3 457.5,653 453.8,649.3 449.9,653.2 "
   id="polygon15" />
		<path
   class="st3"
   d="m 486.3,622.2 c -6.8,0 -11,4.7 -11,11.5 0,6.8 4,10.7 10.5,10.7 h 5 c -0.3,4.5 -3.8,5.9 -8.4,5.9 -1.3,0 -2.5,-0.1 -3.8,-0.2 v 5.6 c 1.6,0.2 3,0.3 4.5,0.2 8.5,-0.1 14.5,-4.3 14.5,-12.8 v -8.8 c 0,-7.2 -4.2,-12.1 -11.3,-12.1 z m 4.5,16.6 h -4.6 c -3,0 -4.1,-2.5 -4.1,-5.4 0,-3.1 1.3,-5.7 4.3,-5.7 3.1,0 4.4,2.7 4.4,5.8 z"
   id="path16" />
		
			<rect
   x="439.20001"
   y="611.40002"
   transform="matrix(0.7071,-0.7071,0.7071,0.7071,-304.8728,492.4944)"
   class="st3"
   width="5.5999999"
   height="5.5999999"
   id="rect16" />
		
			<rect
   x="414.79999"
   y="650.40002"
   transform="matrix(0.7071,-0.7071,0.7071,0.7071,-339.59,486.6349)"
   class="st3"
   width="5.5999999"
   height="5.5999999"
   id="rect17" />
		<path
   class="st3"
   d="m 454.8,644.5 h 1.6 c 4.4,0 8,-3.6 8,-8 v -14 h -6.8 V 637 c 0,1 -0.8,1.8 -1.8,1.8 h -7.2 c -2.2,0 -3.2,-1.3 -3.2,-3.6 v -12.8 h -6.8 V 637 c 0,1 -0.8,1.8 -1.8,1.8 h -9.6 c -2.2,0 -3.2,-1.4 -3.2,-3.6 v -12.8 h -6.8 V 637 c 0,1 -0.8,1.8 -1.8,1.8 H 309.6 c 2,-1.7 3,-4.1 3,-7.1 0,-6.4 -4.9,-9.6 -11.4,-9.6 -3.8,0 -7.2,1.1 -10.6,2.9 l -2,5.4 6.1,10 c -4.8,0.9 -7.8,4.3 -7.8,9.4 0,7.1 6,9.7 13.1,9.7 2.6,0 5,-0.2 7.6,-0.6 v -5.4 c -2.3,0.3 -4.5,0.5 -6.9,0.5 -3.8,0 -7.1,-0.8 -7.1,-4.5 0,-3.2 2.5,-4.8 5.8,-4.8 H 416 c 3.3,0 5.7,-1.9 6.7,-3.8 0.6,1.9 2.5,3.8 4.9,3.8 h 9.8 c 3.3,0 5.7,-1.9 6.7,-3.8 0.6,1.9 2.5,3.8 4.9,3.8 z m -153.5,-5.7 h -0.8 l -5.7,-9.3 c 1.6,-1.1 3.4,-1.8 5.5,-1.8 3.1,0 5.6,1.8 5.6,5.1 0,3 -1.9,4.9 -4.6,6 z"
   id="path17" />
		
			<rect
   x="660.90002"
   y="650.40002"
   transform="matrix(0.7071,-0.7071,0.7071,0.7071,-267.5171,660.6389)"
   class="st3"
   width="5.5999999"
   height="5.5999999"
   id="rect18" />
		
			<rect
   x="632.59998"
   y="650.40002"
   transform="matrix(0.7071,-0.7071,0.7071,0.7071,-275.8142,640.6243)"
   class="st3"
   width="5.5999999"
   height="5.5999999"
   id="rect19" />
		<path
   class="st3"
   d="m 705.5,637 c 0,1 -0.8,1.8 -1.8,1.8 H 699 c -2.2,0 -3.2,-1.4 -3.2,-3.6 V 610 H 689 v 27 c 0,1 -0.8,1.8 -1.8,1.8 h -6.7 c -2.2,0 -3.2,-1.4 -3.2,-3.6 v -5 c 0,-7.5 -5.4,-11.4 -12.8,-11.4 -3.4,0 -9.5,0.6 -12.8,1.1 v 5.4 c 3,-0.5 8.7,-0.9 11.7,-0.9 4.1,0 7.1,1.8 7.1,5.9 v 6.6 c 0,1 -0.8,1.8 -1.8,1.8 h -23.6 c -2.2,0 -3.2,-1.4 -3.2,-3.6 v -12.8 h -6.8 V 637 c 0,1 -0.8,1.8 -1.8,1.8 h -9.5 c -2.2,0 -3.2,-1.3 -3.2,-3.6 v -12.8 h -6.8 V 637 c 0,1 -0.8,1.8 -1.8,1.8 h -70.7 c -2.2,0 -3.2,-1.4 -3.2,-3.6 V 610 h -6.8 v 32.9 c 0,4 -2.7,6.4 -6.7,6.4 -4.4,0 -6.7,-3.2 -6.7,-8.2 0,-1.7 0.4,-4.5 0.7,-6.7 h -6.8 c -0.3,2.4 -0.8,5.5 -0.8,7.9 0,8 5.8,12.4 13.7,12.4 7.2,0 12.8,-3.7 13.2,-10.5 0,-0.7 0,-2.2 0,-3.5 0.6,1.9 2.5,3.7 4.9,3.7 h 69.6 c 3.3,0 5.7,-1.9 6.7,-3.8 0.6,1.9 2.5,3.8 4.9,3.8 h 9.8 c 3.3,0 5.7,-1.9 6.7,-3.8 0.6,1.9 2.5,3.8 4.9,3.8 h 23.8 c 3.3,0 5.7,-1.9 6.7,-3.8 0.6,1.9 2.5,3.8 4.9,3.8 h 6.9 c 3.3,0 5.7,-1.9 6.7,-3.8 0.6,1.9 2.5,3.8 4.9,3.8 h 5 c 4.4,0 8,-3.6 8,-8 V 610 h -6.8 z"
   id="path19" />
		<polygon
   class="st3"
   points="609.9,657.1 613.6,653.5 617.3,657.1 621.2,653.2 617.3,649.3 613.6,653 609.9,649.3 606,653.2 "
   id="polygon19" />
		<polygon
   class="st3"
   points="301.2,557.5 297.5,561.2 293.9,557.5 290,561.4 293.9,565.3 297.5,561.6 301.2,565.3 305.1,561.4 "
   id="polygon20" />
		<rect
   x="508.5"
   y="557.40002"
   class="st3"
   width="6.8000002"
   height="34.400002"
   id="rect20" />
		<path
   class="st3"
   d="m 495.3,584.4 c 0,1 -0.8,1.8 -1.8,1.8 h -6.4 c -2.2,0 -3.2,-1.3 -3.2,-3.6 v 0 c 0.1,-0.6 0.2,-1.2 0.2,-1.7 0,-6.6 -4.7,-11 -11.4,-11 -6.7,0 -11.4,4.4 -11.4,11 0,2.7 0.7,4.6 1.1,5.3 h -6 c -2.2,0 -3.2,-1.3 -3.2,-3.6 v -25.2 h -6.8 v 27 c 0,1 -0.8,1.8 -1.8,1.8 h -6.3 c -2.2,0 -3.2,-1.3 -3.2,-3.6 v -0.8 c 0,-6 -4.9,-11 -10.9,-11 H 397 l 13.9,-9.1 -3.1,-4.5 -20.4,14.3 1.9,5 h 34.4 c 2.5,0 4.6,2 4.6,4.6 v 3.3 c 0,1 -0.8,1.8 -1.8,1.8 h -45.9 c -2.2,0 -3.2,-1.4 -3.2,-3.6 v -12.8 h -6.8 v 14.6 c 0,1 -0.8,1.8 -1.8,1.8 h -55.6 c -1.6,0 -2.6,-1.1 -2.6,-2.8 v -17 h -6.8 v 2.5 c -1.3,-0.1 -2.6,-0.3 -3.8,-0.3 -7,0 -12.5,3.7 -12.5,10.3 v 3.6 c 0,5.8 3.6,9.7 9.7,9.7 2.8,0 5.6,-0.8 8.2,-2.3 1.2,1.3 2.9,2 5,2 h 58.8 c 3.3,0 5.7,-1.9 6.7,-3.8 0.6,1.9 2.5,3.8 4.9,3.8 H 427 c 3.3,0 5.7,-1.9 6.7,-3.8 0.6,1.9 2.5,3.8 4.9,3.8 h 6.5 c 3.3,0 5.7,-1.9 6.7,-3.8 0.6,1.9 2.5,3.8 4.9,3.8 H 474 c 3.1,0 5.6,-1.6 7.4,-3.8 0.6,1.9 2.5,3.8 4.9,3.8 h 7.7 c 4.4,0 8,-3.6 8,-8 v -26.4 h -6.8 z m -191.4,0.8 c -1.6,0.7 -3.1,1.2 -4.6,1.2 -2.9,0 -4.9,-1.9 -4.9,-4.3 v -2.9 c 0,-3.4 2.6,-5 6.1,-5 1.1,0 2.2,0.1 3.5,0.3 z m 173.4,-3.6 c 0,2.5 -2,4.6 -4.6,4.6 h -3.9 c 0,0 -0.7,-2.1 -0.7,-4.6 0,-3.5 1.3,-6 4.6,-6 h 0.1 c 3.2,0 4.5,2.4 4.5,6 z"
   id="path20" />
		<polygon
   class="st3"
   points="374.2,596.7 370.5,600.4 366.8,596.7 362.9,600.6 366.8,604.5 370.5,600.8 374.2,604.5 378.1,600.6 "
   id="polygon21" />
	</g>
	<g
   id="g52">
		<path
   class="st3"
   d="m 298.7,693.1 -3.5,-5.3 c -0.6,-0.8 -1.3,-1.3 -2.3,-1.3 h -1.7 v 6.7 h -3.6 v -17.7 h 7.3 c 3.7,0 6.6,1.7 6.6,5.3 0,2.7 -1.6,4.5 -4.1,5.1 1,0.7 1.8,1.5 2.4,2.5 l 3.1,4.7 z m -4.1,-9.3 c 1.8,0 3.4,-0.9 3.3,-2.8 -0.1,-1.8 -1.5,-2.7 -3.3,-2.7 h -3.4 v 5.4 h 3.4 z"
   id="path21" />
		<path
   class="st3"
   d="m 316.9,686.7 c 0,4 -2.8,6.6 -6.8,6.6 -4,0 -6.8,-2.6 -6.8,-6.6 0,-4 2.8,-6.5 6.8,-6.6 4,0 6.8,2.6 6.8,6.6 z m -3.6,0 c 0,-2 -1.1,-3.6 -3.2,-3.6 -2.1,0 -3.2,1.6 -3.2,3.7 0,2.1 1.1,3.6 3.2,3.6 2.1,0 3.2,-1.6 3.2,-3.7 z"
   id="path22" />
		<path
   class="st3"
   d="m 321.6,680.5 3.4,8.5 3,-8.5 h 3.4 l -6.7,17.9 h -3.2 l 2,-5.3 -5.8,-12.5 h 3.9 z"
   id="path23" />
		<path
   class="st3"
   d="m 345.2,680.5 v 12.6 h -3.4 v -1.9 c -0.9,1.3 -2.3,2.2 -4.3,2.2 -3.7,0 -5.4,-2.9 -5.4,-6.6 0,-3.7 1.7,-6.6 5.4,-6.6 2,0 3.4,0.8 4.3,2.2 v -1.8 z m -3.6,6.2 v 0 c 0,-2.1 -0.9,-3.7 -2.9,-3.7 -2,0 -2.9,1.6 -2.9,3.6 0,2 0.9,3.7 3,3.7 2.1,0 2.8,-1.6 2.8,-3.6 z"
   id="path24" />
		<path
   class="st3"
   d="m 351.5,675.1 v 18 h -3.4 v -18 z"
   id="path25" />
		<path
   class="st3"
   d="m 372.9,676.1 v 2.7 l -0.3,0.2 c -1.4,-0.6 -2.8,-1 -4.3,-1 -3.7,0 -5.9,2.5 -5.9,6.2 0,3.7 2.3,6.2 6.1,6.2 1.5,0 2.9,-0.4 4.3,-1.1 l 0.3,0.2 v 2.8 c -1.6,0.7 -3.2,1 -4.9,1 -5.7,0 -9.5,-3.6 -9.5,-9.3 0,-5.4 3.4,-9 8.7,-9 1.9,0.1 3.7,0.4 5.5,1.1 z"
   id="path26" />
		<path
   class="st3"
   d="m 388.1,686.7 c 0,4 -2.8,6.6 -6.8,6.6 -4,0 -6.8,-2.6 -6.8,-6.6 0,-4 2.8,-6.5 6.8,-6.6 4,0 6.8,2.6 6.8,6.6 z m -3.6,0 c 0,-2 -1.1,-3.6 -3.2,-3.6 -2.1,0 -3.2,1.6 -3.2,3.7 0,2.1 1.1,3.6 3.2,3.6 2,0 3.2,-1.6 3.2,-3.7 z"
   id="path27" />
		<path
   class="st3"
   d="m 410.5,685.7 v 7.5 h -3.4 v -6.6 c 0,-1.8 -0.5,-3.4 -2.4,-3.4 -2.1,0 -2.6,2 -2.6,4.3 v 5.7 h -3.4 v -6.6 c 0,-1.8 -0.5,-3.4 -2.4,-3.4 -2.1,0 -2.5,2 -2.6,4.3 v 5.7 h -3.4 v -12.6 h 3.2 v 2 c 0.8,-1.4 2.2,-2.4 4.1,-2.4 2.1,0 3.5,1.1 4.1,2.8 0.8,-1.7 2.2,-2.8 4.4,-2.8 3,-0.1 4.4,2.4 4.4,5.5 z"
   id="path28" />
		<path
   class="st3"
   d="m 433.4,685.7 v 7.5 H 430 v -6.6 c 0,-1.8 -0.5,-3.4 -2.4,-3.4 -2.1,0 -2.5,2 -2.6,4.3 v 5.7 h -3.4 v -6.6 c 0,-1.8 -0.5,-3.4 -2.4,-3.4 -2.1,0 -2.6,2 -2.6,4.3 v 5.7 h -3.4 v -12.6 h 3.2 v 2 c 0.8,-1.4 2.2,-2.4 4.1,-2.4 2.1,0 3.5,1.1 4.1,2.8 0.8,-1.7 2.2,-2.8 4.4,-2.8 3,-0.1 4.4,2.4 4.4,5.5 z"
   id="path29" />
		<path
   class="st3"
   d="m 452,680.7 v 2.8 l -0.2,0.1 c -1.5,-0.3 -2.9,-0.6 -4.2,-0.6 -1.3,0 -2.4,0.2 -2.4,0.9 0,0.9 1.6,1 3,1.3 2.5,0.5 4.7,1.5 4.7,4 0,2.8 -2.8,4 -6.1,4 -1.7,0 -3.3,-0.2 -4.9,-0.8 v -2.8 l 0.2,-0.1 c 1.5,0.5 2.9,0.7 4.5,0.7 1.3,0 2.6,-0.3 2.6,-1.1 0,-0.9 -1.6,-1.1 -3,-1.4 -2.5,-0.6 -4.6,-1.4 -4.6,-3.8 0,-2.7 2.7,-3.8 5.9,-3.8 1.6,0 3,0.3 4.5,0.6 z"
   id="path30" />
		<path
   class="st3"
   d="m 464.8,680.7 v 2.8 l -0.2,0.1 c -1.5,-0.3 -2.9,-0.6 -4.2,-0.6 -1.3,0 -2.4,0.2 -2.4,0.9 0,0.9 1.6,1 3,1.3 2.5,0.5 4.7,1.5 4.7,4 0,2.8 -2.8,4 -6.1,4 -1.7,0 -3.3,-0.2 -4.9,-0.8 v -2.8 l 0.2,-0.1 c 1.5,0.5 2.9,0.7 4.5,0.7 1.3,0 2.6,-0.3 2.6,-1.1 0,-0.9 -1.6,-1.1 -3,-1.4 -2.5,-0.6 -4.6,-1.4 -4.6,-3.8 0,-2.7 2.7,-3.8 5.9,-3.8 1.6,0 3,0.3 4.5,0.6 z"
   id="path31" />
		<path
   class="st3"
   d="m 487,686.7 c 0,4 -2.8,6.6 -6.8,6.6 -4,0 -6.8,-2.6 -6.8,-6.6 0,-4 2.8,-6.5 6.8,-6.6 4,0 6.8,2.6 6.8,6.6 z m -3.6,0 c 0,-2 -1.1,-3.6 -3.2,-3.6 -2.1,0 -3.2,1.6 -3.2,3.7 0,2.1 1.1,3.6 3.2,3.6 2.1,0 3.2,-1.6 3.2,-3.7 z"
   id="path32" />
		<path
   class="st3"
   d="m 492.4,680.5 v 2 c 0.8,-1.4 2.2,-2.4 4.1,-2.4 3.2,0 4.5,2.4 4.5,5.5 v 7.5 h -3.4 v -6.6 c 0,-1.9 -0.5,-3.4 -2.4,-3.4 -2.4,0 -2.7,2.5 -2.7,5.1 v 0 4.9 h -3.4 v -12.6 z"
   id="path33" />
		<path
   class="st3"
   d="m 507.2,680.6 h 1.8 v -1.9 c 0,-2.7 2.1,-4.2 4.8,-4.2 1.2,0 2.3,0.2 3.3,0.8 v 2.6 L 517,678 c -0.8,-0.3 -1.6,-0.5 -2.4,-0.5 -1.3,0 -2.1,0.8 -2.1,2 v 1.1 h 3.9 v 3 h -3.9 v 9.5 h -3.4 v -9.5 h -1.8 z"
   id="path34" />
		<path
   class="st3"
   d="m 530.8,686.7 c 0,4 -2.8,6.6 -6.8,6.6 -4,0 -6.8,-2.6 -6.8,-6.6 0,-4 2.8,-6.5 6.8,-6.6 4,0 6.8,2.6 6.8,6.6 z m -3.6,0 c 0,-2 -1.1,-3.6 -3.2,-3.6 -2.1,0 -3.2,1.6 -3.2,3.7 0,2.1 1.1,3.6 3.2,3.6 2.1,0 3.2,-1.6 3.2,-3.7 z"
   id="path35" />
		<path
   class="st3"
   d="m 536.1,680.5 v 2.1 c 1.1,-1.8 2.8,-2.6 4.9,-2.5 v 3 c -0.4,-0.1 -0.7,-0.1 -1,-0.1 -2.1,0 -3.7,1.1 -3.7,3.3 v 6.7 h -3.4 v -12.6 h 3.2 z"
   id="path36" />
		<path
   class="st3"
   d="m 555.6,675.4 v 12.5 c 0,3.4 -2.3,5.4 -5.7,5.4 -1.2,0 -2.3,-0.2 -3.5,-0.5 v -2.6 l 0.3,-0.2 c 0.8,0.2 1.5,0.4 2.3,0.4 1.9,0 3,-1.2 3,-3 v -12 z"
   id="path37" />
		<path
   class="st3"
   d="m 567,693.1 v -1.9 c -0.8,1.4 -2.2,2.2 -4.2,2.2 -3.2,0 -5,-2.1 -5,-5.4 v -7.4 h 3.4 v 6.6 c 0,1.8 0.7,3.3 2.6,3.3 2.1,0 2.9,-1.9 2.9,-4 v 0 -5.9 h 3.4 v 12.6 z"
   id="path38" />
		<path
   class="st3"
   d="m 586,686.7 c 0,3.7 -1.8,6.6 -5.4,6.6 -2,0 -3.4,-0.8 -4.2,-2.2 v 1.9 h -1 -2.2 v -18 h 3.4 v 7 c 0.9,-1.2 2.2,-1.9 4.1,-1.9 3.6,0 5.3,3 5.3,6.6 z m -3.6,0 c 0,-2 -0.9,-3.7 -2.9,-3.7 -2,0 -2.9,1.7 -2.9,3.7 0,2 0.9,3.7 2.9,3.7 2,0 2.9,-1.7 2.9,-3.7 z"
   id="path39" />
		<path
   class="st3"
   d="m 600.5,680.5 v 12.6 h -3.4 v -1.9 c -0.9,1.3 -2.3,2.2 -4.3,2.2 -3.7,0 -5.4,-2.9 -5.4,-6.6 0,-3.7 1.7,-6.6 5.4,-6.6 2,0 3.4,0.8 4.3,2.2 v -1.8 z m -3.5,6.2 v 0 c 0,-2.1 -1,-3.7 -2.9,-3.7 -1.9,0 -2.9,1.6 -2.9,3.6 0,2 0.9,3.7 3,3.7 1.9,0.1 2.8,-1.6 2.8,-3.6 z"
   id="path40" />
		<path
   class="st3"
   d="m 606.8,680.5 v 12.6 h -3.4 v -12.6 z m 0.5,-4 -2.1,2.2 -2.2,-2.2 2.2,-2.1 z"
   id="path41" />
		<path
   class="st3"
   d="m 613.1,675.1 v 18 h -3.4 v -18 z"
   id="path42" />
		<path
   class="st3"
   d="m 636.3,693.1 h -4.2 l -1.3,-1.2 c -1.6,1 -3.3,1.6 -5,1.6 -3.3,0 -5.4,-1.9 -5.4,-4.4 0,-2.1 1.3,-3.3 2.9,-4.1 -1,-1.1 -1.7,-2.3 -1.7,-3.8 0,-2.3 2,-4.3 5,-4.3 3,0 4.9,1.7 4.9,4.1 0,2.4 -1.7,3.4 -3.4,4.3 l 3,2.8 c 0.7,-1 1.1,-2.2 1.1,-3.6 h 3.1 c 0,2.1 -0.9,4 -2.2,5.5 z m -7.7,-3.2 -3.6,-3.3 c -0.9,0.5 -1.5,1.1 -1.5,2 0,1 1,1.9 2.4,1.9 1,0.1 1.9,-0.1 2.7,-0.6 z m -2.6,-6.3 c 1.3,-0.6 2.4,-1.3 2.4,-2.4 0,-1 -0.9,-1.7 -1.9,-1.7 -1.3,0 -1.9,0.9 -1.9,1.7 -0.1,0.8 0.5,1.5 1.4,2.4 z"
   id="path43" />
		<path
   class="st3"
   d="m 657.1,675.4 -5.7,10.2 v 7.5 h -3.7 v -7.5 l -6.2,-10.2 h 4.3 l 4,7.1 3.7,-7.1 z"
   id="path44" />
		<path
   class="st3"
   d="m 667.8,680.5 v 12.6 h -3.4 v -1.9 c -0.9,1.3 -2.3,2.2 -4.3,2.2 -3.7,0 -5.4,-2.9 -5.4,-6.6 0,-3.7 1.7,-6.6 5.4,-6.6 2,0 3.4,0.8 4.3,2.2 v -1.8 z m -3.6,6.2 v 0 c 0,-2.1 -1,-3.7 -2.9,-3.7 -1.9,0 -2.9,1.6 -2.9,3.6 0,2 0.9,3.7 3,3.7 2,0.1 2.9,-1.6 2.8,-3.6 z"
   id="path45" />
		<path
   class="st3"
   d="m 673.9,680.5 v 2 c 0.8,-1.4 2.2,-2.4 4.1,-2.4 3.2,0 4.5,2.4 4.5,5.5 v 7.5 h -3.4 v -6.6 c 0,-1.9 -0.5,-3.4 -2.4,-3.4 -2.3,0 -2.7,2.5 -2.7,5.1 v 0 4.9 h -3.4 v -12.6 z"
   id="path46" />
		<path
   class="st3"
   d="m 698,686.7 c 0,3.7 -1.8,6.6 -5.4,6.6 -2,0 -3.4,-0.8 -4.2,-2.2 v 1.9 h -1 -2.2 v -18 h 3.4 v 7 c 0.9,-1.2 2.2,-1.9 4.1,-1.9 3.6,0 5.3,3 5.3,6.6 z m -3.6,0 c 0,-2 -0.9,-3.7 -2.9,-3.7 -2,0 -2.9,1.7 -2.9,3.7 0,2 0.9,3.7 2.9,3.7 2,0 2.9,-1.7 2.9,-3.7 z"
   id="path47" />
		<path
   class="st3"
   d="m 709,693.1 v -1.9 c -0.8,1.4 -2.2,2.2 -4.2,2.2 -3.2,0 -5,-2.1 -5,-5.4 v -7.4 h 3.4 v 6.6 c 0,1.8 0.7,3.3 2.6,3.3 2.1,0 2.9,-1.9 2.9,-4 v 0 -5.9 h 3.4 v 12.6 z"
   id="path48" />
		<g
   id="g49">
			<rect
   x="467.79999"
   y="680.5"
   class="st3"
   width="3.4000001"
   height="12.6"
   id="rect48" />
			<rect
   x="468"
   y="675"
   transform="matrix(0.7071,-0.7071,0.7071,0.7071,-340.8291,530.178)"
   class="st3"
   width="3.0999999"
   height="3"
   id="rect49" />
		</g>
		<g
   id="g51">
			<rect
   x="436"
   y="680.5"
   class="st3"
   width="3.4000001"
   height="12.6"
   id="rect50" />
			
				<rect
   x="436.10001"
   y="675"
   transform="matrix(0.7071,-0.7071,0.7071,0.7071,-350.1762,507.6255)"
   class="st3"
   width="3.0999999"
   height="3"
   id="rect51" />
		</g>
	</g>
</g></g>
</svg>
